<svg xmlns="http://www.w3.org/2000/svg" viewBox="0 0 100 100" role="img" aria-label="Serralharia Irmãos Unidos">
<g transform="translate(-2.22,4.06) scale(1.0715)"><g data-halo="1" fill="#fff"><path d="M28,74 L66,36" fill="none" stroke="#fff" stroke-width="12.666168109790698" stroke-linejoin="round" stroke-linecap="round"/><rect x="52" y="20" width="30" height="16" rx="3" transform="rotate(45 67 28)" fill="#fff" stroke="#fff" stroke-width="4.666168109790698" stroke-linejoin="round" stroke-linecap="round"/><path d="M34,36 L72,74" fill="none" stroke="#fff" stroke-width="12.666168109790698" stroke-linejoin="round" stroke-linecap="round"/><path d="M38,24 A12,12 0 1,0 24,38 L30,32 L26,28 L32,22 Z" fill="#fff" stroke="#fff" stroke-width="4.666168109790698" stroke-linejoin="round" stroke-linecap="round"/></g><g data-art="1"><path d="M28,74 L66,36" stroke="#475569" stroke-width="8" stroke-linecap="round" fill="none"/><rect x="52" y="20" width="30" height="16" rx="3" transform="rotate(45 67 28)" fill="#334155"/><path d="M34,36 L72,74" stroke="#b45309" stroke-width="8" stroke-linecap="round" fill="none"/><path d="M38,24 A12,12 0 1,0 24,38 L30,32 L26,28 L32,22 Z" fill="#b45309"/></g></g>
</svg>