<svg xmlns="http://www.w3.org/2000/svg" viewBox="0 0 100 100" role="img" aria-label="Quinta do Vale">
<g transform="translate(-10.01,-11.51) scale(1.1323)"><g data-halo="1" fill="#fff"><rect x="47" y="22" width="5" height="14" fill="#fff" stroke="#fff" stroke-width="4.415927577663112" stroke-linejoin="round" stroke-linecap="round"/>
<path d="M54,26 C62,19 74,21 78,28 C70,34 58,33 54,26 Z" fill="#fff" stroke="#fff" stroke-width="4.415927577663112" stroke-linejoin="round" stroke-linecap="round"/>
<circle cx="38" cy="44" r="10" fill="#fff" stroke="#fff" stroke-width="4.415927577663112" stroke-linejoin="round" stroke-linecap="round"/>
<circle cx="62" cy="44" r="10" fill="#fff" stroke="#fff" stroke-width="4.415927577663112" stroke-linejoin="round" stroke-linecap="round"/>
<circle cx="50" cy="55" r="10" fill="#fff" stroke="#fff" stroke-width="4.415927577663112" stroke-linejoin="round" stroke-linecap="round"/>
<circle cx="38" cy="66" r="10" fill="#fff" stroke="#fff" stroke-width="4.415927577663112" stroke-linejoin="round" stroke-linecap="round"/>
<circle cx="62" cy="66" r="10" fill="#fff" stroke="#fff" stroke-width="4.415927577663112" stroke-linejoin="round" stroke-linecap="round"/>
<circle cx="50" cy="77" r="10" fill="#fff" stroke="#fff" stroke-width="4.415927577663112" stroke-linejoin="round" stroke-linecap="round"/></g><g data-art="1"><rect x="47" y="22" width="5" height="14" fill="#7f1d1d"/>
<path d="M54,26 C62,19 74,21 78,28 C70,34 58,33 54,26 Z" fill="#7f1d1d"/>
<circle cx="38" cy="44" r="10" fill="#7f1d1d"/>
<circle cx="62" cy="44" r="10" fill="#7f1d1d"/>
<circle cx="50" cy="55" r="10" fill="#7f1d1d"/>
<circle cx="38" cy="66" r="10" fill="#7f1d1d"/>
<circle cx="62" cy="66" r="10" fill="#7f1d1d"/>
<circle cx="50" cy="77" r="10" fill="#7f1d1d"/></g></g>
</svg>