<svg xmlns="http://www.w3.org/2000/svg" width="128" height="128" viewBox="0 0 128 128">
  <rect x="4" y="4" width="120" height="120" rx="28" fill="#003824"/>
  <circle cx="64" cy="64" r="40" fill="#F2F8F0"/>
  <g stroke="#003824" stroke-width="6" stroke-linecap="round">
    <line x1="64" y1="43" x2="64" y2="27.5"/>
    <line x1="84" y1="57.5" x2="98.7" y2="52.7"/>
    <line x1="76.3" y1="81" x2="85.5" y2="93.5"/>
    <line x1="51.7" y1="81" x2="42.5" y2="93.5"/>
    <line x1="44" y1="57.5" x2="29.3" y2="52.7"/>
  </g>
  <path transform="translate(64.9,64) scale(1.6)" fill="#95d4b3" d="M 6.36 -7.06 A 9.5 9.5 0 1 0 6.36 7.06 L 2.88 3.20 A 4.3 4.3 0 1 1 2.88 -3.20 Z M -10.6 -7.2 H 5 V -2 H -10.6 Z M -10.6 7.2 H 5 V 2 H -10.6 Z"/>
</svg>
